<svg width="78" height="76" viewBox="0 0 78 76" fill="none" xmlns="http://www.w3.org/2000/svg">
<g filter="url(#filter0_d_256_306)">
<circle cx="39" cy="37" r="27" fill="#478AB0"/>
<path d="M38.9943 14.1892L41.8274 26.4207L50.3967 17.2445L46.7345 29.2538L58.7438 25.5916L49.5676 34.1609L61.7991 36.994L49.5676 39.8272L58.7438 48.3965L46.7345 44.7343L50.3967 56.7436L41.8274 47.5674L38.9943 59.7989L36.1612 47.5674L27.5919 56.7436L31.2541 44.7343L19.2447 48.3965L28.4209 39.8272L16.1895 36.994L28.4209 34.1609L19.2447 25.5916L31.2541 29.2538L27.5919 17.2445L36.1612 26.4207L38.9943 14.1892Z" fill="white"/>
<path d="M33.7169 17.2832L39 24.7526L44.2831 17.2832L45.1237 26.3934L53.4338 22.5663L49.6066 30.8763L58.7169 31.7169L51.2475 37L58.7169 42.2832L49.6066 43.1238L53.4338 51.4338L45.1237 47.6066L44.2831 56.7169L39 49.2475L33.7169 56.7169L32.8763 47.6066L24.5662 51.4338L28.3934 43.1238L19.2831 42.2832L26.7526 37L19.2831 31.7169L28.3934 30.8763L24.5662 22.5663L32.8763 26.3934L33.7169 17.2832Z" fill="white"/>
<path d="M54.3186 36.994C54.3186 45.4577 47.4575 52.3189 38.9938 52.3189C30.5301 52.3189 23.6689 45.4577 23.6689 36.994C23.6689 28.5304 30.5301 21.6692 38.9938 21.6692C47.4575 21.6692 54.3186 28.5304 54.3186 36.994Z" fill="#478AB0"/>
<path fill-rule="evenodd" clip-rule="evenodd" d="M38.9938 49.3999C45.8453 49.3999 51.3996 43.8456 51.3996 36.994C51.3996 30.1425 45.8453 24.5882 38.9938 24.5882C32.1422 24.5882 26.588 30.1425 26.588 36.994C26.588 43.8456 32.1422 49.3999 38.9938 49.3999ZM38.9938 52.3189C47.4575 52.3189 54.3186 45.4577 54.3186 36.994C54.3186 28.5304 47.4575 21.6692 38.9938 21.6692C30.5301 21.6692 23.6689 28.5304 23.6689 36.994C23.6689 45.4577 30.5301 52.3189 38.9938 52.3189Z" fill="white"/>
<mask id="mask0_256_306" style="mask-type:alpha" maskUnits="userSpaceOnUse" x="26" y="24" width="26" height="26">
<path d="M51.3995 36.9941C51.3995 43.8456 45.8453 49.3999 38.9937 49.3999C32.1422 49.3999 26.5879 43.8456 26.5879 36.9941C26.5879 30.1425 32.1422 24.5883 38.9937 24.5883C45.8453 24.5883 51.3995 30.1425 51.3995 36.9941Z" fill="white"/>
</mask>
<g mask="url(#mask0_256_306)">
<path fill-rule="evenodd" clip-rule="evenodd" d="M50.2251 26.724L49.1517 26.9387C48.6081 27.0474 47.4785 27.4444 46.2409 28.1228C45.0083 28.7985 43.7787 29.6939 42.9554 30.7388C41.0159 33.2006 40.2633 35.6846 39.6035 38.0724C39.5641 38.2152 39.5248 38.3586 39.4854 38.5023C38.8861 40.6903 38.2634 42.9634 36.5866 44.6895C33.9418 47.4121 30.6412 48.8051 29.2437 49.1801L28.1864 49.4637L27.6191 47.3492L28.6764 47.0656C29.7722 46.7716 32.6988 45.5497 35.0163 43.164C36.2891 41.8538 36.773 40.0999 37.4282 37.7253C37.4497 37.6473 37.4714 37.5686 37.4933 37.4893C38.1631 35.0652 39.0069 32.213 41.2358 29.384C42.3099 28.0207 43.8169 26.9549 45.1886 26.203C46.5553 25.4538 47.8978 24.9569 48.7224 24.7919L49.7958 24.5773L50.2251 26.724Z" fill="white"/>
</g>
</g>
<defs>
<filter id="filter0_d_256_306" x="0" y="0" width="78" height="78" filterUnits="userSpaceOnUse" color-interpolation-filters="sRGB">
<feFlood flood-opacity="0" result="BackgroundImageFix"/>
<feColorMatrix in="SourceAlpha" type="matrix" values="0 0 0 0 0 0 0 0 0 0 0 0 0 0 0 0 0 0 127 0" result="hardAlpha"/>
<feOffset dy="2"/>
<feGaussianBlur stdDeviation="6"/>
<feComposite in2="hardAlpha" operator="out"/>
<feColorMatrix type="matrix" values="0 0 0 0 0.223529 0 0 0 0 0.423529 0 0 0 0 0.541176 0 0 0 0.9 0"/>
<feBlend mode="normal" in2="BackgroundImageFix" result="effect1_dropShadow_256_306"/>
<feBlend mode="normal" in="SourceGraphic" in2="effect1_dropShadow_256_306" result="shape"/>
</filter>
</defs>
</svg>
