<svg width="123" height="32" viewBox="0 0 123 32" fill="none" xmlns="http://www.w3.org/2000/svg">
<path d="M36.3991 18.4527C36.3991 19.4731 37.1311 19.9833 38.5951 19.9833C40.0739 19.9833 40.8133 19.5248 40.8133 18.608C40.8133 18.12 40.5619 17.7207 40.0591 17.4102C39.5563 17.0996 38.9426 16.8408 38.218 16.6338C37.5082 16.4268 36.791 16.1902 36.0664 15.924C35.3566 15.643 34.7503 15.2142 34.2475 14.6375C33.7447 14.0459 33.4933 13.3139 33.4933 12.4415C33.4933 8.7297 35.8815 6.87382 40.658 6.87382C42.403 6.87382 43.7191 7.20655 44.6064 7.872C45.5085 8.52267 45.9595 9.43212 45.9595 10.6004C45.9595 11.0292 45.9003 11.4433 45.782 11.8425C45.6785 12.227 45.5676 12.5006 45.4493 12.6633L45.2718 12.9295H41.3457C41.671 12.5893 41.8337 12.1605 41.8337 11.6429C41.8337 10.6817 41.2052 10.2011 39.9482 10.2011C38.3659 10.2011 37.5748 10.7039 37.5748 11.7095C37.5748 12.2122 37.8262 12.6115 38.3289 12.9073C38.8317 13.203 39.438 13.4396 40.1478 13.6171C40.8725 13.7798 41.5971 13.9868 42.3217 14.2382C43.0463 14.4896 43.66 14.911 44.1628 15.5025C44.6655 16.0793 44.9169 16.8335 44.9169 17.7651C44.9169 19.6432 44.355 21.0406 43.2311 21.9575C42.1072 22.8595 40.3771 23.3105 38.0406 23.3105C35.7041 23.3105 34.107 22.8965 33.2493 22.0684C32.6134 21.4473 32.2955 20.5896 32.2955 19.4953C32.2955 19.0812 32.3398 18.6302 32.4286 18.1422L32.4951 17.7873H36.4878L36.4435 18.0535C36.4139 18.2013 36.3991 18.3344 36.3991 18.4527ZM61.5852 7.02909L56.5056 15.0811L58.7681 23H54.5536L52.8899 17.144H51.1376L50.095 23H46.1023L48.9194 7.02909H52.9121L51.7365 13.6836H53.1561L57.3706 7.02909H61.5852ZM67.0253 7.02909L64.2304 23H60.2155L63.0326 7.02909H67.0253ZM76.1701 7.02909C77.8559 7.02909 79.0537 7.39879 79.7635 8.13818C80.2959 8.70012 80.5621 9.40994 80.5621 10.2676C80.5621 10.5634 80.5325 10.8739 80.4734 11.1993L80.2737 12.264C80.111 13.1069 79.7931 13.765 79.3199 14.2382C78.8615 14.7114 78.4548 14.948 78.0999 14.948L78.0777 15.1255C78.4918 15.1255 78.9132 15.3547 79.3421 15.8131C79.7709 16.2715 79.9854 16.8113 79.9854 17.4324C79.9854 17.6838 79.9558 17.9499 79.8966 18.2309L79.7635 18.9185C79.5269 20.1903 78.9576 21.1885 78.0555 21.9131C77.1683 22.6377 75.9261 23 74.329 23H66.9203L69.7374 7.02909H76.1701ZM74.1737 16.4785H72.0664L71.5341 19.5396H73.6414C73.6709 19.5396 73.7005 19.5396 73.7301 19.5396C74.4103 19.5396 74.9501 19.3844 75.3494 19.0738C75.7486 18.7485 75.9483 18.3566 75.9483 17.8982C75.9483 16.9518 75.3567 16.4785 74.1737 16.4785ZM74.7726 10.4895H73.109L72.5323 13.7945H74.1737C75.5934 13.7945 76.3032 13.1735 76.3032 11.9313C76.3032 11.5024 76.1701 11.1549 75.9039 10.8887C75.6525 10.6225 75.2754 10.4895 74.7726 10.4895ZM88.8002 23L88.9333 19.5175H85.2289L84.142 23H79.9053L85.606 7.02909H92.926L93.0147 23H88.8002ZM87.8907 10.9109L86.1384 16.5451H89.0442L89.2882 10.9109H87.8907ZM100.282 23.3105C98.1674 23.3105 96.7034 22.8521 95.8901 21.9353C95.3281 21.2846 95.0471 20.3752 95.0471 19.2069C95.0471 18.7041 95.0989 18.1644 95.2024 17.5876L96.1119 12.4858C96.7773 8.74449 99.1804 6.87382 103.321 6.87382C105.036 6.87382 106.338 7.24352 107.225 7.98291C108.112 8.70752 108.556 9.7057 108.556 10.9775C108.556 11.569 108.467 12.1605 108.29 12.752C108.127 13.3287 107.964 13.7576 107.802 14.0385L107.558 14.4822H103.632C104.12 13.9202 104.364 13.1217 104.364 12.0865C104.364 11.5394 104.223 11.1105 103.942 10.8C103.661 10.4747 103.247 10.312 102.7 10.312C101.206 10.312 100.319 11.1401 100.038 12.7964L99.2617 17.2771C99.1878 17.6616 99.1508 18.0387 99.1508 18.4084C99.1508 19.3844 99.7349 19.8724 100.903 19.8724C102.308 19.8724 103.151 19.0812 103.432 17.4989H107.425L107.314 18.1422C106.722 21.5878 104.378 23.3105 100.282 23.3105ZM112.825 18.4527C112.825 19.4731 113.557 19.9833 115.021 19.9833C116.5 19.9833 117.239 19.5248 117.239 18.608C117.239 18.12 116.988 17.7207 116.485 17.4102C115.982 17.0996 115.369 16.8408 114.644 16.6338C113.934 16.4268 113.217 16.1902 112.492 15.924C111.782 15.643 111.176 15.2142 110.673 14.6375C110.171 14.0459 109.919 13.3139 109.919 12.4415C109.919 8.7297 112.307 6.87382 117.084 6.87382C118.829 6.87382 120.145 7.20655 121.032 7.872C121.934 8.52267 122.385 9.43212 122.385 10.6004C122.385 11.0292 122.326 11.4433 122.208 11.8425C122.104 12.227 121.993 12.5006 121.875 12.6633L121.698 12.9295H117.772C118.097 12.5893 118.26 12.1605 118.26 11.6429C118.26 10.6817 117.631 10.2011 116.374 10.2011C114.792 10.2011 114.001 10.7039 114.001 11.7095C114.001 12.2122 114.252 12.6115 114.755 12.9073C115.258 13.203 115.864 13.4396 116.574 13.6171C117.298 13.7798 118.023 13.9868 118.748 14.2382C119.472 14.4896 120.086 14.911 120.589 15.5025C121.091 16.0793 121.343 16.8335 121.343 17.7651C121.343 19.6432 120.781 21.0406 119.657 21.9575C118.533 22.8595 116.803 23.3105 114.466 23.3105C112.13 23.3105 110.533 22.8965 109.675 22.0684C109.039 21.4473 108.721 20.5896 108.721 19.4953C108.721 19.0812 108.766 18.6302 108.854 18.1422L108.921 17.7873H112.914L112.869 18.0535C112.84 18.2013 112.825 18.3344 112.825 18.4527Z" fill="#478AB0"/>
<path d="M15.4001 1.349L17.1458 8.88558L22.4258 3.23154L20.1693 10.6312L27.569 8.37473L21.915 13.6548L29.4516 15.4005L21.915 17.1461L27.569 22.4262L20.1693 20.1697L22.4258 27.5694L17.1458 21.9153L15.4001 29.4519L13.6544 21.9153L8.37436 27.5694L10.6309 20.1697L3.23117 22.4262L8.88521 17.1461L1.34863 15.4005L8.88521 13.6548L3.23117 8.37473L10.6309 10.6312L8.37436 3.23154L13.6544 8.88558L15.4001 1.349Z" fill="#478AB0"/>
<path d="M12.1488 3.25524L15.404 7.85762L18.6593 3.25524L19.1772 8.86864L24.2976 6.5105L21.9394 11.6308L27.5528 12.1488L22.9505 15.404L27.5528 18.6593L21.9394 19.1772L24.2976 24.2976L19.1772 21.9394L18.6593 27.5528L15.404 22.9504L12.1488 27.5528L11.6308 21.9394L6.51051 24.2976L8.86866 19.1772L3.25526 18.6593L7.85763 15.404L3.25526 12.1488L8.86866 11.6308L6.51051 6.5105L11.6308 8.86864L12.1488 3.25524Z" fill="#478AB0"/>
<path d="M24.8432 15.4004C24.8432 20.6154 20.6156 24.843 15.4006 24.843C10.1856 24.843 5.95801 20.6154 5.95801 15.4004C5.95801 10.1854 10.1856 5.95782 15.4006 5.95782C20.6156 5.95782 24.8432 10.1854 24.8432 15.4004Z" fill="white"/>
<path fill-rule="evenodd" clip-rule="evenodd" d="M15.4006 23.0444C19.6223 23.0444 23.0446 19.6221 23.0446 15.4004C23.0446 11.1787 19.6223 7.75641 15.4006 7.75641C11.1789 7.75641 7.75659 11.1787 7.75659 15.4004C7.75659 19.6221 11.1789 23.0444 15.4006 23.0444ZM15.4006 24.843C20.6156 24.843 24.8432 20.6154 24.8432 15.4004C24.8432 10.1854 20.6156 5.95782 15.4006 5.95782C10.1856 5.95782 5.95801 10.1854 5.95801 15.4004C5.95801 20.6154 10.1856 24.843 15.4006 24.843Z" fill="#478AB0"/>
<mask id="mask0_258_294" style="mask-type:alpha" maskUnits="userSpaceOnUse" x="7" y="7" width="17" height="17">
<path d="M23.0448 15.4005C23.0448 19.6221 19.6225 23.0445 15.4008 23.0445C11.1792 23.0445 7.75684 19.6221 7.75684 15.4005C7.75684 11.1788 11.1792 7.75647 15.4008 7.75647C19.6225 7.75647 23.0448 11.1788 23.0448 15.4005Z" fill="#478AB0"/>
</mask>
<g mask="url(#mask0_258_294)">
<path fill-rule="evenodd" clip-rule="evenodd" d="M22.3215 9.07244L21.6601 9.20471C21.3252 9.27171 20.6291 9.51632 19.8666 9.93431C19.1071 10.3506 18.3495 10.9024 17.8422 11.5462C16.6472 13.063 16.1834 14.5936 15.7769 16.0649C15.7526 16.1529 15.7284 16.2412 15.7041 16.3298C15.3348 17.6779 14.9512 19.0785 13.918 20.1421C12.2884 21.8196 10.2547 22.678 9.39356 22.909L8.74213 23.0838L8.39258 21.7809L9.04401 21.6061C9.71919 21.425 11.5225 20.6721 12.9504 19.2021C13.7347 18.3948 14.0328 17.3142 14.4365 15.851C14.4498 15.8029 14.4632 15.7545 14.4767 15.7056C14.8894 14.212 15.4093 12.4545 16.7826 10.7114C17.4444 9.87142 18.373 9.21471 19.2182 8.75143C20.0603 8.2898 20.8875 7.98359 21.3956 7.88197L22.057 7.74969L22.3215 9.07244Z" fill="#478AB0"/>
</g>
</svg>
